<?xml version="1.0" standalone="no"?><!DOCTYPE svg PUBLIC "-//W3C//DTD SVG 1.1//EN" "http://www.w3.org/Graphics/SVG/1.1/DTD/svg11.dtd"><svg t="1705073762389" class="icon" viewBox="0 0 1024 1024" version="1.1" xmlns="http://www.w3.org/2000/svg" p-id="4320" xmlns:xlink="http://www.w3.org/1999/xlink" width="200" height="200"><path d="M512 64c259.2 0 469.333 200.576 469.333 448S771.2 960 512 960a484.48 484.48 0 0 1-232.725-58.88L162.88 951.765a42.667 42.667 0 0 1-58.517-49.002l29.76-125.014C76.629 703.403 42.667 611.477 42.667 512 42.667 264.576 252.8 64 512 64z m0 64c-224.512 0-405.333 172.587-405.333 384 0 79.573 25.557 155.435 72.554 219.285l5.526 7.318 18.709 24.192-26.965 113.237 105.984-46.08 27.477 15.019C370.859 878.229 439.979 896 512 896c224.512 0 405.333-172.587 405.333-384S736.512 128 512 128zM354.304 469.333a42.667 42.667 0 1 1 0 85.334 42.667 42.667 0 0 1 0-85.334z m159.019 0a42.667 42.667 0 1 1 0 85.334 42.667 42.667 0 0 1 0-85.334z m158.997 0a42.667 42.667 0 1 1 0 85.334 42.667 42.667 0 0 1 0-85.334z" fill="#333333" p-id="4321"></path></svg>