<?xml version="1.0" standalone="no"?><!DOCTYPE svg PUBLIC "-//W3C//DTD SVG 1.1//EN" "http://www.w3.org/Graphics/SVG/1.1/DTD/svg11.dtd"><svg t="1705067738151" class="icon" viewBox="0 0 1024 1024" version="1.1" xmlns="http://www.w3.org/2000/svg" p-id="10435" xmlns:xlink="http://www.w3.org/1999/xlink" width="200" height="200"><path d="M728.274051 905.110974H183.95241a23.000615 23.000615 0 0 1-19.954872-11.500307C91.346051 767.789949 10.581333 453.185641 0.866462 258.468103a23.18441 23.18441 0 0 1 23.079384-24.260924h864.387282a23.079385 23.079385 0 0 1 23.079385 24.208411c-9.662359 194.770051-90.505846 509.453128-163.131077 635.195077a23.315692 23.315692 0 0 1-20.007385 11.500307z m128.603898-618.390974H55.401026c14.966154 180.434051 83.60041 445.833846 146.011897 565.878154h509.505641c62.437744-120.018051 131.072-385.444103 145.985641-565.878154z" fill="#2c2c2c" p-id="10436"></path><path d="M815.707897 595.075282l7.483077-31.822769c18.300718-77.193846 32.295385-153.783795 40.487385-221.604103l3.36082-27.044102 26.203898 7.798154c72.809026 21.687795 121.750974 73.964308 121.750974 130.074256 0 68.581744-71.68 128.393846-166.754461 138.975179l-32.557949 3.623385z m146.773334-142.572308c0-23.289436-18.957128-48.836923-51.725128-66.48123a2118.025846 2118.025846 0 0 1-26.177641 144.042666c47.550359-16.01641 77.902769-47.655385 77.902769-77.587692zM157.801026 1023.606154c-12.603077 0-22.843077-14.257231-22.843077-31.822769 0-17.591795 10.24-31.822769 22.843077-31.82277h590.900512c12.603077 0 22.816821 14.283487 22.790565 31.875282 0 17.565538-10.24 31.770256-22.843077 31.770257H157.801026zM186.840615 182.875897c-5.960205-5.251282-9.321026-12.340513-9.321025-19.771076V28.068103c0-15.438769 14.257231-27.963077 31.822769-27.963077 17.591795 0 31.822769 12.524308 31.822769 27.963077v135.036718c-0.026256 15.412513-14.257231 27.910564-31.822769 27.963076-8.428308 0-16.541538-2.940718-22.501744-8.192z m245.865026 0c-5.986462-5.251282-9.321026-12.340513-9.321026-19.771076V28.068103c0-15.438769 14.230974-27.963077 31.82277-27.963077 17.591795 0 31.822769 12.524308 31.822769 27.963077v135.036718c0 15.412513-14.178462 27.963077-31.822769 27.963076-8.454564 0-16.541538-2.940718-22.501744-8.192z m228.220718 0a26.177641 26.177641 0 0 1-9.268513-19.771076V28.01559c0-15.412513 14.230974-27.910564 31.822769-27.910564 17.591795 0 31.822769 12.498051 31.82277 27.910564v135.089231c0 15.412513-14.230974 27.963077-31.82277 27.963076a34.133333 34.133333 0 0 1-22.580512-8.165743z" fill="#2c2c2c" p-id="10437"></path></svg>